<?xml version="1.0" standalone="no"?>
<!DOCTYPE svg PUBLIC "-//W3C//DTD SVG 20010904//EN"
 "http://www.w3.org/TR/2001/REC-SVG-20010904/DTD/svg10.dtd">
<svg version="1.0" xmlns="http://www.w3.org/2000/svg"
 width="228.000000pt" height="228.000000pt" viewBox="0 0 228.000000 228.000000"
 preserveAspectRatio="xMidYMid meet">
<metadata>
Created by potrace 1.11, written by Peter Selinger 2001-2013
</metadata>
<g transform="translate(0.000000,228.000000) scale(0.100000,-0.100000)"
fill="#000000" stroke="none">
<path d="M1578 1475 c-2 -2 -35 -5 -74 -8 -80 -7 -212 -23 -524 -67 -213 -30
-242 -33 -365 -46 -38 -3 -80 -8 -92 -9 -16 -2 -22 5 -27 26 -4 21 -11 29 -26
29 -16 0 -20 -7 -20 -30 l0 -31 -57 3 c-48 2 -58 6 -57 20 2 23 -52 41 -123
41 -42 0 -56 3 -64 18 -5 11 -16 19 -23 19 -19 0 -27 -25 -13 -39 6 -6 12 -29
13 -52 1 -23 8 -45 16 -50 16 -11 31 -12 25 -1 -3 4 -1 15 2 26 6 16 9 16 22
5 8 -8 28 -16 44 -18 40 -4 43 -7 40 -35 -8 -72 -54 -160 -94 -180 -48 -25
-81 -7 -81 45 0 34 32 62 70 62 34 0 40 21 11 36 -12 7 -31 7 -55 0 -95 -26
-103 -177 -11 -195 65 -12 129 27 168 101 9 17 17 26 17 20 7 -57 38 -107 73
-116 15 -4 41 -3 58 1 27 8 30 7 24 -8 -20 -47 -26 -85 -16 -95 25 -25 59 23
75 108 21 111 69 195 111 195 48 0 41 -92 -9 -140 -19 -17 -31 -20 -55 -15
-32 7 -37 1 -21 -25 14 -23 120 -18 164 8 32 19 35 19 42 4 4 -9 7 -20 6 -23
0 -3 27 -4 61 -2 80 4 88 5 82 11 -3 3 3 10 11 17 13 9 21 7 40 -12 28 -28 65
-29 122 -3 35 16 42 17 42 4 0 -20 30 -30 41 -13 5 8 9 23 9 34 0 49 96 162
118 140 3 -3 -4 -29 -17 -59 -28 -68 -31 -105 -9 -119 21 -14 25 -10 32 25 10
59 62 137 98 151 28 10 29 -7 3 -62 -33 -67 -33 -108 -1 -121 28 -10 43 -9 75
9 17 9 26 10 34 2 14 -14 54 -14 62 0 4 6 14 8 22 5 8 -3 12 -2 9 3 -3 4 3 16
13 25 19 17 20 17 23 -5 4 -29 46 -53 65 -37 8 6 27 11 43 10 25 -1 30 4 38
36 9 37 9 37 19 12 18 -44 48 -63 90 -57 55 7 85 23 114 65 35 50 40 68 24 82
-12 10 -16 8 -21 -6 -26 -72 -109 -121 -146 -87 -26 23 -23 30 16 37 39 8 86
56 81 83 -2 10 -4 21 -4 26 -1 4 -13 7 -27 7 -22 0 -25 -4 -21 -21 7 -27 -28
-63 -54 -56 -10 3 -17 1 -13 -4 3 -5 -2 -9 -10 -9 -26 0 -19 10 47 74 64 61
80 94 66 133 -19 51 -97 25 -141 -47 -15 -25 -38 -85 -51 -135 -20 -75 -27
-91 -45 -93 -26 -4 -28 10 -7 68 20 56 19 106 -1 114 -22 9 -24 8 -24 -11 0
-51 -82 -173 -115 -173 -21 0 -19 19 10 76 29 57 31 77 9 95 -13 10 -17 10
-25 -2 -5 -8 -9 -20 -9 -26 0 -13 -55 -119 -72 -140 -15 -18 -48 -16 -48 2 0
9 11 37 25 63 30 57 32 97 6 112 -22 11 -64 -1 -93 -27 -16 -15 -18 -15 -18 0
0 22 -31 37 -61 30 -13 -3 -37 -17 -54 -32 -16 -14 -27 -22 -23 -17 10 12 -10
46 -27 46 -8 0 -15 -8 -16 -17 -2 -62 -27 -113 -68 -142 -34 -25 -69 -32 -93
-19 -43 22 -3 153 45 146 18 -2 21 -8 19 -30 -4 -30 5 -35 30 -15 21 17 27 38
17 65 -7 17 -16 22 -44 22 -20 0 -48 -6 -63 -14 -30 -15 -72 -82 -72 -114 0
-42 -103 -89 -129 -58 -11 13 -7 17 24 31 21 8 40 15 43 15 9 0 44 45 53 68
17 44 -25 84 -77 74 -36 -7 -83 -61 -95 -109 -7 -24 -21 -50 -32 -58 -31 -22
-37 -18 -22 13 22 43 25 82 10 118 -12 30 -18 34 -53 34 -25 0 -47 -7 -63 -20
l-23 -21 -8 21 c-15 42 -35 22 -42 -42 -11 -97 -53 -148 -109 -134 -29 7 -54
61 -37 81 6 7 6 15 -1 22 -6 6 4 14 32 23 23 8 53 28 69 48 25 30 34 34 85 37
58 4 141 13 185 20 14 2 52 7 85 10 33 3 71 8 85 10 14 2 45 6 70 9 25 3 56 8
69 11 14 2 61 9 105 15 45 6 92 13 106 15 14 3 50 7 80 10 30 3 64 8 75 10 11
2 61 7 110 11 50 3 92 8 94 10 2 2 11 -2 19 -9 13 -10 14 -9 8 1 -6 10 21 12
131 8 159 -4 210 -15 275 -59 l47 -32 -34 -35 c-24 -25 -32 -39 -25 -49 7 -12
13 -12 37 4 15 10 33 25 39 33 9 13 15 10 34 -16 24 -33 60 -43 60 -18 0 8
-11 28 -25 44 l-24 29 24 23 c14 13 25 29 25 36 0 23 -25 22 -52 -3 l-26 -25
-24 22 c-26 25 -107 65 -153 76 -29 7 -360 15 -367 9z m307 -125 c9 -14 -13
-51 -53 -87 -19 -18 -36 -33 -38 -33 -7 0 38 96 53 113 18 19 29 21 38 7z
m-1477 -68 c-11 -13 -68 -42 -83 -42 -3 0 -3 10 -1 23 3 12 5 25 5 28 1 3 21
6 46 6 40 1 44 -1 33 -15z m455 -44 c7 -21 -11 -47 -44 -64 -37 -19 -43 -15
-30 18 18 48 63 75 74 46z"/>
<path d="M1180 919 c0 -5 4 -8 9 -5 5 3 14 -1 21 -9 10 -12 9 -15 -5 -15 -10
0 -27 -7 -37 -17 -17 -15 -18 -15 -18 0 0 20 -29 22 -55 4 -13 -10 -16 -21
-11 -40 8 -33 39 -36 59 -7 l14 21 6 -21 c8 -30 44 -26 60 8 14 28 12 58 -5
80 -13 15 -38 16 -38 1z m-40 -64 c0 -7 -7 -18 -15 -25 -12 -10 -16 -9 -21 4
-9 24 3 47 21 40 8 -3 15 -12 15 -19z m73 13 c2 -7 0 -21 -5 -31 -7 -14 -12
-16 -23 -7 -11 9 -12 17 -4 31 11 22 25 25 32 7z"/>
<path d="M93 868 c-8 -51 -7 -53 15 -56 35 -5 48 12 48 60 -1 39 -4 43 -28 46
-25 3 -27 0 -35 -50z m47 28 c0 -15 -18 -31 -26 -23 -7 7 7 37 17 37 5 0 9 -6
9 -14z m-4 -47 c8 -14 -18 -31 -30 -19 -9 9 0 30 14 30 5 0 12 -5 16 -11z"/>
<path d="M1950 908 c0 -11 28 -10 35 1 3 6 -4 9 -15 8 -11 -1 -20 -5 -20 -9z"/>
<path d="M168 854 c-5 -40 12 -55 41 -37 25 16 26 43 2 43 -12 0 -21 6 -21 15
0 31 -18 14 -22 -21z m46 -13 c3 -5 -1 -11 -9 -15 -15 -6 -29 7 -18 18 9 9 21
8 27 -3z"/>
<path d="M246 879 c-12 -39 -15 -69 -7 -69 10 0 25 69 17 77 -3 3 -8 0 -10 -8z"/>
<path d="M274 865 c-11 -42 0 -54 50 -51 52 2 51 1 59 44 8 40 -9 43 -18 2 -9
-42 -33 -40 -27 3 3 18 1 28 -4 24 -9 -9 -10 -13 -13 -41 0 -8 -8 -17 -17 -20
-14 -5 -16 -1 -11 29 7 40 -9 48 -19 10z"/>
<path d="M399 875 c-4 -59 -4 -60 25 -61 15 -1 29 4 31 10 12 39 14 66 6 66
-5 0 -12 -13 -16 -29 -3 -16 -13 -32 -22 -35 -13 -5 -15 0 -10 29 3 19 2 35
-4 35 -5 0 -9 -7 -10 -15z"/>
<path d="M496 875 c-21 -21 -21 -54 0 -62 26 -10 48 10 48 43 0 34 -23 43 -48
19z m34 -5 c0 -5 -4 -10 -10 -10 -5 0 -10 5 -10 10 0 6 5 10 10 10 6 0 10 -4
10 -10z m-7 -26 c11 -11 -3 -24 -18 -18 -8 4 -12 10 -9 15 6 11 18 12 27 3z"/>
<path d="M565 865 c-4 -16 -8 -36 -11 -42 -5 -19 13 -16 20 4 6 14 8 14 22 -3
15 -18 15 -18 10 6 -3 15 1 31 11 42 9 10 11 18 6 18 -6 0 -17 -7 -24 -16 -12
-14 -14 -14 -20 3 -6 15 -8 13 -14 -12z"/>
<path d="M635 866 c-22 -32 -10 -57 26 -54 18 1 29 8 29 18 0 8 3 25 6 38 5
19 2 22 -20 22 -16 0 -31 -9 -41 -24z m35 -26 c-12 -22 -30 -19 -30 5 0 16 33
38 38 25 2 -5 -2 -18 -8 -30z"/>
<path d="M744 865 c-10 -39 2 -56 33 -52 24 3 28 9 30 43 3 29 1 35 -6 24 -6
-8 -11 -22 -11 -31 0 -20 -27 -33 -33 -16 -2 7 0 22 4 35 5 13 5 22 -1 22 -5
0 -12 -11 -16 -25z"/>
<path d="M865 880 c-2 -3 -6 -27 -10 -55 -5 -42 -4 -47 7 -34 7 9 23 19 36 23
22 7 39 46 27 65 -6 11 -54 11 -60 1z m35 -45 c-7 -8 -16 -15 -21 -15 -15 0
-10 28 9 46 16 17 17 17 20 0 2 -9 -2 -23 -8 -31z"/>
<path d="M940 883 c0 -4 4 -23 9 -40 8 -27 6 -35 -7 -42 -9 -5 -14 -13 -10
-16 4 -4 12 -4 18 0 15 10 62 105 51 105 -5 0 -13 -9 -16 -20 -7 -23 -25 -27
-25 -6 0 8 -4 18 -10 21 -5 3 -10 3 -10 -2z"/>
<path d="M1011 853 c-12 -41 -5 -58 11 -30 9 18 10 18 25 0 14 -17 14 -16 9 7
-3 15 1 31 11 42 21 23 6 23 -20 1 -19 -17 -20 -17 -14 0 4 9 2 17 -3 17 -5 0
-14 -17 -19 -37z"/>
<path d="M1255 867 c-8 -13 -13 -32 -9 -41 7 -17 54 -23 54 -6 0 5 -6 7 -14 4
-8 -3 -17 -1 -20 4 -3 6 6 13 20 16 17 5 24 12 22 24 -5 26 -35 26 -53 -1z
m27 -9 c-7 -7 -12 -8 -12 -2 0 14 12 26 19 19 2 -3 -1 -11 -7 -17z"/>
<path d="M1327 868 c-2 -13 -8 -32 -13 -43 -7 -18 -6 -18 9 -7 8 8 17 23 19
34 2 12 9 23 16 26 10 3 12 -5 8 -32 -4 -21 -2 -36 4 -36 6 0 10 8 10 18 0 9
3 27 6 40 6 19 3 22 -24 22 -23 0 -31 -5 -35 -22z"/>
<path d="M1406 868 c-11 -39 -1 -58 29 -56 19 2 27 9 31 28 3 14 7 31 10 38 2
6 -1 12 -6 12 -4 0 -14 -16 -20 -35 -15 -45 -28 -44 -32 3 -4 36 -4 36 -12 10z"/>
<path d="M1495 867 c-20 -32 -10 -57 24 -56 l26 0 -25 11 -25 10 28 10 c18 6
27 16 25 26 -5 26 -35 26 -53 -1z m30 -6 c-3 -6 -11 -11 -17 -11 -6 0 -6 6 2
15 14 17 26 13 15 -4z"/>
<path d="M1599 874 c-18 -22 -19 -41 -3 -55 18 -15 64 3 64 25 0 44 -35 62
-61 30z m41 -24 c0 -23 -29 -35 -36 -15 -7 18 14 47 27 39 5 -3 9 -13 9 -24z"/>
<path d="M1680 866 c0 -13 -3 -31 -6 -40 -3 -9 -1 -16 5 -16 6 0 11 9 11 20 0
25 20 26 27 2 8 -32 43 -24 59 14 17 42 33 38 26 -7 -3 -20 -1 -30 6 -26 5 4
12 23 14 42 4 32 2 35 -23 35 -22 0 -29 -6 -34 -30 -10 -45 -29 -51 -21 -6 4
23 3 36 -4 36 -5 0 -10 -7 -10 -15 0 -8 -9 -15 -20 -15 -13 0 -18 5 -14 15 4
8 1 15 -5 15 -6 0 -11 -11 -11 -24z"/>
<path d="M1862 883 c-22 -9 -35 -43 -21 -59 17 -20 59 -18 59 4 0 9 3 27 6 40
5 17 2 22 -12 21 -11 0 -25 -3 -32 -6z m28 -16 c0 -7 -6 -22 -14 -33 -14 -18
-15 -18 -21 -1 -7 17 10 47 26 47 5 0 9 -6 9 -13z"/>
<path d="M1925 860 c-8 -37 0 -50 30 -50 26 0 41 31 32 67 -3 13 -6 9 -12 -14
-4 -17 -14 -34 -22 -37 -12 -5 -14 1 -11 29 5 43 -8 47 -17 5z"/>
<path d="M2010 866 c0 -13 -3 -31 -6 -40 -3 -9 -2 -16 4 -16 5 0 12 9 15 20 3
11 10 20 16 20 6 0 11 -9 11 -20 0 -11 5 -20 10 -20 6 0 10 8 10 18 0 9 3 28
6 42 5 23 4 24 -9 8 -17 -22 -37 -23 -37 -3 0 8 -4 15 -10 15 -5 0 -10 -11
-10 -24z"/>
</g>
</svg>
